<svg width="20" height="20" viewBox="0 0 512 512" fill="none"
     xmlns="http://www.w3.org/2000/svg" data-type="dislike">
    <path d="M8.21948 163.921C-2.57452 177.305 -7.75122 191.652 -7.09036 206.427C-6.42951 222.702 1.0602 235.443 7.2282 243.259C0.0689192 260.604 -2.68464 287.906 21.2164 309.106C38.7291 324.631 68.4676 331.59 109.661 329.663C138.629 328.378 162.86 323.132 163.851 322.918H163.961C169.469 321.954 175.306 320.776 181.254 319.491C181.694 326.344 180.483 343.368 167.486 381.698C152.066 427.309 152.947 462.213 170.35 485.554C188.633 510.073 217.821 512 226.412 512C234.673 512 242.273 508.681 247.67 502.578C259.896 488.766 258.464 463.284 256.922 451.506C271.461 413.604 312.214 320.669 346.688 294.866C347.349 294.437 347.9 293.902 348.451 293.367C358.584 282.981 365.413 271.739 370.039 261.889C376.537 265.315 383.917 267.242 391.847 267.242H459.034C484.367 267.242 504.854 247.22 504.854 222.702V48.716C504.854 24.0903 484.257 4.17569 459.034 4.17569H391.847C382.044 4.17569 372.902 7.17357 365.413 12.3128L339.529 9.31495C335.564 8.77961 265.073 0.107097 192.709 1.49898C179.602 0.535369 167.266 2.21279e-06 155.811 2.21279e-06C136.095 2.21279e-06 118.913 1.49897 104.594 4.49688C70.8907 11.4563 47.8709 25.3752 36.1958 45.8252C27.2742 61.4572 27.2742 76.982 28.7061 86.8323C6.78763 106.105 2.93265 127.411 3.70365 142.401C4.14422 151.073 6.12677 158.461 8.21948 163.921ZM459.034 33.0841C467.956 33.0841 475.115 40.1506 475.115 48.716V222.809C475.115 231.481 467.846 238.441 459.034 238.441H391.847C382.925 238.441 375.766 231.374 375.766 222.809L375.766 48.8231C375.766 40.1506 383.036 33.1911 391.847 33.1911H459.034V33.0841V33.0841ZM36.4161 176.448C41.0421 171.737 41.9232 164.564 38.3986 158.996C38.3986 158.889 33.8828 151.394 33.3321 141.116C32.5611 127.09 39.5001 114.67 54.0389 104.07C59.2156 100.216 61.3083 93.5776 59.1055 87.5818C59.1055 87.4747 54.3694 73.3417 62.0794 59.9582C69.4589 47.11 85.8702 37.9021 110.762 32.7629C130.698 28.5872 157.793 27.8378 191.057 30.4074C191.497 30.4074 192.048 30.4074 192.599 30.4074C263.42 28.9084 335.013 37.9021 335.784 38.0092H335.894L347.019 39.294C346.358 42.2919 346.028 45.504 346.028 48.716L346.028 222.809C346.028 227.413 346.799 231.91 348.12 236.085C346.138 243.259 340.631 259.212 327.634 272.81C278.18 310.926 229.827 439.515 227.734 445.082C226.853 447.331 226.633 449.793 227.073 452.256C228.946 464.248 228.285 478.916 225.641 483.306C219.804 483.199 204.053 481.593 194.581 468.852C183.347 453.755 183.787 426.774 195.903 391.013C214.407 336.515 215.949 307.821 201.3 295.187C194.03 288.87 184.338 288.549 177.289 291.011C170.57 292.51 164.182 293.795 158.124 294.759C157.683 294.866 157.133 294.973 156.692 295.08C122.878 302.253 62.2996 306.643 41.2623 288.013C23.4192 272.167 36.0856 251.182 37.5175 248.934C41.5928 242.938 40.3812 235.122 34.8741 230.304C34.7639 230.197 23.1989 219.597 22.6482 205.357C22.2076 195.828 26.8336 186.084 36.4161 176.448Z"
          fill="#9FAEB5"></path>
</svg>