<svg width="20" height="20" viewBox="0 0 512 512" fill="none"
     xmlns="http://www.w3.org/2000/svg" data-type="like">
    <path d="M496.634 348.079C507.428 334.695 512.605 320.348 511.944 305.573C511.283 289.298 503.793 276.557 497.625 268.741C504.785 251.396 507.538 224.094 483.637 202.894C466.124 187.369 436.386 180.41 395.192 182.337C366.225 183.622 341.993 188.868 341.002 189.082H340.892C335.385 190.046 329.547 191.224 323.6 192.509C323.159 185.656 324.371 168.632 337.367 130.302C352.787 84.6909 351.906 49.7867 334.504 26.4458C316.22 1.92723 287.032 0 278.441 0C270.18 0 262.58 3.31911 257.184 9.422C244.958 23.2338 246.389 48.716 247.931 60.4935C233.393 98.3956 192.64 191.331 158.165 217.134C157.504 217.563 156.954 218.098 156.403 218.633C146.27 229.019 139.441 240.261 134.815 250.111C128.316 246.685 120.937 244.758 113.007 244.758H45.8194C20.4866 244.758 0 264.78 0 289.298V463.284C0 487.91 20.5967 507.824 45.8194 507.824H113.007C122.809 507.824 131.951 504.826 139.441 499.687L165.324 502.685C169.29 503.22 239.781 511.893 312.145 510.501C325.252 511.465 337.588 512 349.043 512C368.758 512 385.94 510.501 400.259 507.503C433.963 500.544 456.983 486.625 468.658 466.175C477.579 450.543 477.579 435.018 476.147 425.168C498.066 405.895 501.921 384.589 501.15 369.599C500.709 360.927 498.727 353.539 496.634 348.079ZM45.8194 478.916C36.8978 478.916 29.7386 471.849 29.7386 463.284V289.191C29.7386 280.519 37.008 273.559 45.8194 273.559H113.007C121.928 273.559 129.087 280.626 129.087 289.191V463.177C129.087 471.849 121.818 478.809 113.007 478.809H45.8194V478.916V478.916ZM468.437 335.552C463.811 340.263 462.93 347.436 466.455 353.004C466.455 353.111 470.971 360.606 471.521 370.884C472.292 384.91 465.353 397.33 450.815 407.93C445.638 411.784 443.545 418.422 445.748 424.418C445.748 424.525 450.484 438.658 442.774 452.042C435.395 464.89 418.983 474.098 394.091 479.237C374.155 483.413 347.06 484.162 313.797 481.593C313.356 481.593 312.806 481.593 312.255 481.593C241.433 483.092 169.84 474.098 169.069 473.991H168.959L157.835 472.706C158.496 469.708 158.826 466.496 158.826 463.284V289.191C158.826 284.587 158.055 280.09 156.733 275.915C158.716 268.741 164.223 252.788 177.22 239.19C226.674 201.074 275.027 72.4852 277.119 66.9176C278 64.6692 278.221 62.2066 277.78 59.744C275.908 47.7524 276.569 33.0841 279.212 28.6943C285.05 28.8013 300.8 30.4074 310.272 43.1485C321.507 58.2451 321.066 85.2263 308.951 120.987C290.447 175.485 288.905 204.179 303.554 216.813C310.823 223.13 320.516 223.451 327.565 220.989C334.284 219.49 340.672 218.205 346.73 217.241C347.17 217.134 347.721 217.027 348.161 216.92C381.975 209.747 442.554 205.357 463.591 223.987C481.434 239.833 468.768 260.818 467.336 263.066C463.261 269.062 464.472 276.878 469.979 281.696C470.09 281.803 481.655 292.403 482.205 306.643C482.646 316.172 478.02 325.916 468.437 335.552Z"
          fill="#9FAEB5"></path>
</svg>